<mxfile host="app.diagrams.net" agent="Mozilla/5.0 (Macintosh; Intel Mac OS X 10_15_7) AppleWebKit/537.36 (KHTML, like Gecko) Chrome/127.0.0.0 Safari/537.36" version="25.0.3">
  <diagram name="FlowDiagram" id="9y34Vq2jWYsgVTpN0gYz">
    <mxGraphModel dx="1026" dy="684" grid="1" gridSize="10" guides="1" tooltips="1" connect="1" arrows="1" fold="1" page="1" pageScale="1" pageWidth="827" pageHeight="1169" math="0" shadow="0">
      <root>
        <mxCell id="0" />
        <mxCell id="1" parent="0" />
        <mxCell id="CUmNI5YfYo9JzAnAqN_D-46" value="Assignments" style="dashed=1;strokeWidth=2;strokeColor=#666666;fillColor=none;align=left;verticalAlign=top;fontSize=14;" vertex="1" parent="1">
          <mxGeometry x="150" y="1070" width="640" height="190" as="geometry" />
        </mxCell>
        <mxCell id="CUmNI5YfYo9JzAnAqN_D-47" value="pc_assign_worklist&#xa;(Assignments)" style="shape=rectangle;whiteSpace=wrap;html=1;align=center;verticalAlign=top;" vertex="1" parent="CUmNI5YfYo9JzAnAqN_D-46">
          <mxGeometry x="199" y="20" width="128.57" height="100" as="geometry" />
        </mxCell>
        <mxCell id="CUmNI5YfYo9JzAnAqN_D-48" value="pc_assign_workbasket&#xa;(Assignments)" style="shape=rectangle;whiteSpace=wrap;html=1;align=center;verticalAlign=top;" vertex="1" parent="CUmNI5YfYo9JzAnAqN_D-46">
          <mxGeometry x="340" y="20" width="117.14" height="100" as="geometry" />
        </mxCell>
        <mxCell id="CUmNI5YfYo9JzAnAqN_D-49" value="pr_assign&#xa;(Assignments)" style="shape=rectangle;whiteSpace=wrap;html=1;align=center;verticalAlign=top;" vertex="1" parent="CUmNI5YfYo9JzAnAqN_D-46">
          <mxGeometry x="480" y="20" width="94.76" height="100" as="geometry" />
        </mxCell>
        <mxCell id="CUmNI5YfYo9JzAnAqN_D-50" value="Indices" style="dashed=1;strokeWidth=2;strokeColor=#666666;fillColor=none;align=left;verticalAlign=top;fontSize=14;" vertex="1" parent="1">
          <mxGeometry x="810" y="1070" width="320" height="220" as="geometry" />
        </mxCell>
        <mxCell id="CUmNI5YfYo9JzAnAqN_D-51" value="pc_index_workparty" style="shape=rectangle;whiteSpace=wrap;html=1;align=center;verticalAlign=top;" vertex="1" parent="CUmNI5YfYo9JzAnAqN_D-50">
          <mxGeometry x="10" y="20" width="140" height="100" as="geometry" />
        </mxCell>
        <mxCell id="CUmNI5YfYo9JzAnAqN_D-52" value="pr_index" style="shape=rectangle;whiteSpace=wrap;html=1;align=center;verticalAlign=top;" vertex="1" parent="CUmNI5YfYo9JzAnAqN_D-50">
          <mxGeometry x="160" y="20" width="140" height="100" as="geometry" />
        </mxCell>
        <mxCell id="CUmNI5YfYo9JzAnAqN_D-53" value="pc_work&#xa;[Covered Work Objects]" style="shape=rectangle;whiteSpace=wrap;html=1;align=center;verticalAlign=top;fillColor=#FFF2B8;strokeWidth=2;" vertex="1" parent="1">
          <mxGeometry x="600" y="1350" width="200" height="120" as="geometry" />
        </mxCell>
        <mxCell id="CUmNI5YfYo9JzAnAqN_D-54" value="pc_history_work&#xa;[Work Object History]" style="shape=rectangle;whiteSpace=wrap;html=1;align=center;verticalAlign=top;" vertex="1" parent="1">
          <mxGeometry x="980" y="1310" width="160" height="80" as="geometry" />
        </mxCell>
        <mxCell id="CUmNI5YfYo9JzAnAqN_D-55" value="Attachment Links" style="dashed=1;strokeWidth=2;strokeColor=#666666;fillColor=none;align=left;verticalAlign=top;fontSize=14;" vertex="1" parent="1">
          <mxGeometry x="340" y="1290" width="220" height="330" as="geometry" />
        </mxCell>
        <mxCell id="CUmNI5YfYo9JzAnAqN_D-56" value="pc_link_attachment" style="shape=rectangle;whiteSpace=wrap;html=1;align=center;verticalAlign=top;" vertex="1" parent="CUmNI5YfYo9JzAnAqN_D-55">
          <mxGeometry x="10" y="28.18" width="140" height="41.82" as="geometry" />
        </mxCell>
        <mxCell id="CUmNI5YfYo9JzAnAqN_D-57" value="pr_link" style="shape=rectangle;whiteSpace=wrap;html=1;align=center;verticalAlign=top;" vertex="1" parent="CUmNI5YfYo9JzAnAqN_D-55">
          <mxGeometry x="10" y="155" width="140" height="45" as="geometry" />
        </mxCell>
        <mxCell id="CUmNI5YfYo9JzAnAqN_D-58" value="pc_data_workattach, pr_data" style="shape=rectangle;whiteSpace=wrap;html=1;align=center;verticalAlign=top;" vertex="1" parent="CUmNI5YfYo9JzAnAqN_D-55">
          <mxGeometry x="10" y="281.82" width="140" height="48.18" as="geometry" />
        </mxCell>
        <mxCell id="CUmNI5YfYo9JzAnAqN_D-59" value="pc_link_folder&#xa;[Work Folder Links]" style="shape=rectangle;whiteSpace=wrap;html=1;align=center;verticalAlign=top;" vertex="1" parent="1">
          <mxGeometry x="890" y="1470" width="160" height="80" as="geometry" />
        </mxCell>
        <mxCell id="CUmNI5YfYo9JzAnAqN_D-60" value="n : 1" style="edgeStyle=orthogonalEdgeStyle;rounded=0;html=1;strokeColor=#0044cc;endArrow=none;" edge="1" parent="1" source="CUmNI5YfYo9JzAnAqN_D-47" target="CUmNI5YfYo9JzAnAqN_D-53">
          <mxGeometry relative="1" as="geometry">
            <Array as="points">
              <mxPoint x="430" y="1270" />
              <mxPoint x="700" y="1270" />
            </Array>
          </mxGeometry>
        </mxCell>
        <mxCell id="CUmNI5YfYo9JzAnAqN_D-61" value="n : 1" style="edgeStyle=orthogonalEdgeStyle;rounded=0;html=1;strokeColor=#0044cc;endArrow=none;" edge="1" parent="1" source="CUmNI5YfYo9JzAnAqN_D-48" target="CUmNI5YfYo9JzAnAqN_D-53">
          <mxGeometry relative="1" as="geometry">
            <Array as="points">
              <mxPoint x="610" y="1140" />
            </Array>
          </mxGeometry>
        </mxCell>
        <mxCell id="CUmNI5YfYo9JzAnAqN_D-62" value="n : 1" style="edgeStyle=orthogonalEdgeStyle;rounded=0;html=1;strokeColor=#0044cc;endArrow=none;" edge="1" parent="1" source="CUmNI5YfYo9JzAnAqN_D-49" target="CUmNI5YfYo9JzAnAqN_D-53">
          <mxGeometry relative="1" as="geometry" />
        </mxCell>
        <mxCell id="CUmNI5YfYo9JzAnAqN_D-63" value="n : 1" style="edgeStyle=orthogonalEdgeStyle;rounded=0;html=1;strokeColor=#0044cc;endArrow=none;exitX=0.25;exitY=1;exitDx=0;exitDy=0;" edge="1" parent="1" source="CUmNI5YfYo9JzAnAqN_D-52" target="CUmNI5YfYo9JzAnAqN_D-53">
          <mxGeometry relative="1" as="geometry">
            <Array as="points">
              <mxPoint x="960" y="1190" />
              <mxPoint x="960" y="1330" />
              <mxPoint x="700" y="1330" />
            </Array>
          </mxGeometry>
        </mxCell>
        <mxCell id="CUmNI5YfYo9JzAnAqN_D-64" value="n : 1" style="edgeStyle=orthogonalEdgeStyle;rounded=0;html=1;strokeColor=#0044cc;endArrow=none;entryX=1;entryY=0;entryDx=0;entryDy=0;" edge="1" parent="1" source="CUmNI5YfYo9JzAnAqN_D-50" target="CUmNI5YfYo9JzAnAqN_D-53">
          <mxGeometry relative="1" as="geometry">
            <mxPoint x="1080" y="1230" as="sourcePoint" />
            <mxPoint x="810" y="1440" as="targetPoint" />
          </mxGeometry>
        </mxCell>
        <mxCell id="CUmNI5YfYo9JzAnAqN_D-65" value="1 : n" style="edgeStyle=orthogonalEdgeStyle;rounded=0;html=1;strokeColor=#0044cc;endArrow=none;" edge="1" parent="1" source="CUmNI5YfYo9JzAnAqN_D-53" target="CUmNI5YfYo9JzAnAqN_D-54">
          <mxGeometry relative="1" as="geometry" />
        </mxCell>
        <mxCell id="CUmNI5YfYo9JzAnAqN_D-67" value="n : 1" style="edgeStyle=orthogonalEdgeStyle;rounded=0;html=1;strokeColor=#0044cc;endArrow=none;" edge="1" parent="1" source="CUmNI5YfYo9JzAnAqN_D-57" target="CUmNI5YfYo9JzAnAqN_D-58">
          <mxGeometry relative="1" as="geometry" />
        </mxCell>
        <mxCell id="CUmNI5YfYo9JzAnAqN_D-68" value="1 : n" style="edgeStyle=orthogonalEdgeStyle;rounded=0;html=1;strokeColor=#0044cc;" edge="1" parent="1" source="CUmNI5YfYo9JzAnAqN_D-53" target="CUmNI5YfYo9JzAnAqN_D-56">
          <mxGeometry relative="1" as="geometry" />
        </mxCell>
        <mxCell id="CUmNI5YfYo9JzAnAqN_D-69" value="1 : n" style="edgeStyle=orthogonalEdgeStyle;rounded=0;html=1;strokeColor=#0044cc;" edge="1" parent="1" source="CUmNI5YfYo9JzAnAqN_D-53" target="CUmNI5YfYo9JzAnAqN_D-57">
          <mxGeometry relative="1" as="geometry">
            <Array as="points">
              <mxPoint x="710" y="1430" />
              <mxPoint x="430" y="1430" />
            </Array>
          </mxGeometry>
        </mxCell>
        <mxCell id="CUmNI5YfYo9JzAnAqN_D-70" value="1 : n" style="edgeStyle=orthogonalEdgeStyle;rounded=0;html=1;strokeColor=#0044cc;exitX=1;exitY=1;exitDx=0;exitDy=0;" edge="1" parent="1" source="CUmNI5YfYo9JzAnAqN_D-53" target="CUmNI5YfYo9JzAnAqN_D-59">
          <mxGeometry relative="1" as="geometry">
            <Array as="points">
              <mxPoint x="860" y="1470" />
              <mxPoint x="860" y="1510" />
            </Array>
          </mxGeometry>
        </mxCell>
        <mxCell id="CUmNI5YfYo9JzAnAqN_D-73" style="edgeStyle=orthogonalEdgeStyle;rounded=0;orthogonalLoop=1;jettySize=auto;html=1;" edge="1" parent="1" source="CUmNI5YfYo9JzAnAqN_D-71" target="CUmNI5YfYo9JzAnAqN_D-53">
          <mxGeometry relative="1" as="geometry">
            <mxPoint x="170" y="1640" as="targetPoint" />
            <Array as="points">
              <mxPoint x="117" y="1680" />
              <mxPoint x="670" y="1680" />
            </Array>
          </mxGeometry>
        </mxCell>
        <mxCell id="CUmNI5YfYo9JzAnAqN_D-71" value="pr_data_admin_sla&lt;br&gt;(Work/Stage/Process/ Assignments SLA)" style="shape=rectangle;whiteSpace=wrap;html=1;align=center;verticalAlign=top;" vertex="1" parent="1">
          <mxGeometry x="40" y="1350" width="154.76" height="100" as="geometry" />
        </mxCell>
        <mxCell id="CUmNI5YfYo9JzAnAqN_D-72" style="edgeStyle=orthogonalEdgeStyle;rounded=0;orthogonalLoop=1;jettySize=auto;html=1;entryX=0.093;entryY=1.013;entryDx=0;entryDy=0;entryPerimeter=0;" edge="1" parent="1" source="CUmNI5YfYo9JzAnAqN_D-71" target="CUmNI5YfYo9JzAnAqN_D-46">
          <mxGeometry relative="1" as="geometry" />
        </mxCell>
      </root>
    </mxGraphModel>
  </diagram>
</mxfile>
